<svg width="8" height="8" viewBox="0 0 8 8" fill="none" xmlns="http://www.w3.org/2000/svg">
<path fill-rule="evenodd" clip-rule="evenodd" d="M7.13326 1.90291C7.24014 1.73503 7.27596 1.53157 7.23282 1.33728C7.18969 1.14299 7.07114 0.973795 6.90326 0.866913C6.73538 0.760031 6.53191 0.724217 6.33763 0.76735C6.14334 0.810484 5.97414 0.929031 5.86726 1.09691L2.93026 5.71191L1.58626 4.03191C1.46201 3.8765 1.2811 3.7768 1.08335 3.75477C0.885589 3.73273 0.687178 3.79016 0.531761 3.91441C0.376344 4.03867 0.276653 4.21957 0.254617 4.41733C0.232582 4.61508 0.290007 4.8135 0.414261 4.96891L2.41426 7.46891C2.4888 7.5622 2.58453 7.63634 2.6935 7.68517C2.80246 7.734 2.92152 7.75611 3.04075 7.74965C3.15998 7.7432 3.27595 7.70837 3.37901 7.64806C3.48207 7.58775 3.56923 7.5037 3.63326 7.40291L7.13326 1.90291Z" fill="white"/>
</svg>
